<?xml version="1.0" encoding="UTF-8" standalone="no"?><svg width="124" height="124" viewBox="0 0 124 124" xmlns="http://www.w3.org/2000/svg" xmlns:xlink="http://www.w3.org/1999/xlink"><svg width="18" height="17" viewBox="0 0 18 17" id="add" x="98"><title>add</title><path d="M9 0C4.305 0 .5 3.805.5 8.5S4.305 17 9 17s8.5-3.806 8.5-8.5S13.695 0 9 0zm0 15.938c-4.108 0-7.438-3.33-7.438-7.438S4.893 1.062 9 1.062s7.438 3.33 7.438 7.438-3.33 7.438-7.438 7.438zm3.188-7.97H9.53V5.314c0-.294-.237-.532-.53-.532-.293 0-.53.24-.53.532V7.97H5.81c-.293 0-.53.237-.53.53 0 .293.237.53.53.53H8.47v2.658c0 .293.237.53.53.53.293 0 .53-.237.53-.53V9.03h2.658c.293 0 .53-.237.53-.53 0-.293-.237-.53-.53-.53z" fill="#FFF" fill-rule="evenodd"/></svg><svg width="17" height="17" viewBox="0 0 17 17" id="add_blue" x="98" y="17"><title>add_blue</title><path d="M8.5 0C3.805 0 0 3.805 0 8.5S3.805 17 8.5 17 17 13.194 17 8.5 13.195 0 8.5 0zm0 15.938c-4.108 0-7.438-3.33-7.438-7.438S4.393 1.062 8.5 1.062s7.438 3.33 7.438 7.438-3.33 7.438-7.438 7.438zm3.188-7.97H9.03V5.314c0-.294-.237-.532-.53-.532-.293 0-.53.24-.53.532V7.97H5.312c-.294 0-.532.237-.532.53 0 .293.24.53.532.53H7.97v2.658c0 .293.237.53.53.53.293 0 .53-.237.53-.53V9.03h2.658c.293 0 .53-.237.53-.53 0-.293-.237-.53-.53-.53z" fill="#5AACEE" fill-rule="evenodd"/></svg><svg width="18" height="13" viewBox="0 0 18 13" id="checked" x="36" y="64"><title>checked</title><path d="M5.907 10.265l-4.055-4.06L.5 7.56l5.407 5.412L17.492 1.374 16.142.02 5.906 10.266z" fill="#00C05F" fill-rule="evenodd"/></svg><svg width="21" height="20" viewBox="0 0 21 20" id="close_gray" x="76" y="25"><title>close_gray</title><path d="M19.74.603l-9.108 9.095L1.524.603l-.76.758 9.11 9.096-8.35 8.337.76.758 8.348-8.336 8.35 8.338.76-.758-8.35-8.338L20.5 1.36l-.76-.757z" fill="#475062" fill-rule="evenodd"/></svg><svg width="18" height="18" viewBox="0 0 18 18" id="close_white" x="18" y="64"><title>close_white</title><path d="M17.064.802l-7.84 7.83L1.38.802l-.652.652 7.84 7.83-7.187 7.177.655.653 7.188-7.176 7.188 7.177.654-.652-7.188-7.178 7.84-7.83-.652-.652z" fill="#F2F4F7" fill-rule="evenodd"/></svg><svg width="8" height="14" viewBox="0 0 8 14" id="datetimepicker-next" x="88" y="100"><title>datetimepicker-next</title><path d="M.895 13.052c-.29-.29-.29-.756 0-1.044l5.122-5.113L.895 1.78c-.29-.287-.29-.755 0-1.043.29-.288.757-.288 1.045 0l5.646 5.635c.29.29.29.756 0 1.044L1.94 13.052c-.144.144-.333.216-.522.216-.19 0-.38-.072-.523-.216z" fill="#8AB8D9" fill-rule="evenodd"/></svg><svg width="8" height="14" viewBox="0 0 8 14" id="datetimepicker-prev" x="116"><title>datetimepicker-prev</title><path d="M7.328.853c.29.288.29.755 0 1.044L2.205 7.01l5.123 5.114c.29.288.29.755 0 1.043-.29.29-.757.29-1.046 0L.637 7.532c-.29-.288-.29-.756 0-1.044L6.282.853c.144-.144.333-.217.523-.217.188 0 .378.072.523.217z" fill="#8AB8D9" fill-rule="evenodd"/></svg><svg width="14" height="8" viewBox="0 0 14 8" id="dd-tile" x="68" y="64"><title>dd-tile</title><path d="M1.012.283c.288-.29.755-.29 1.043 0L7.17 5.406 12.28.283c.29-.29.756-.29 1.044 0 .288.29.288.757 0 1.046L7.69 6.973c-.288.29-.755.29-1.043 0L1.012 1.33C.867 1.184.795.995.795.806c0-.19.072-.38.217-.524z" fill="#FFF" fill-rule="evenodd"/></svg><svg width="9" height="8" viewBox="0 0 9 8" id="delete-small" y="116"><title>delete-small</title><path d="M8.196.24L4.553 3.88.91.24.605.545l3.643 3.64L.91 7.516l.303.303 3.34-3.334 3.34 3.335.303-.302-3.34-3.335L8.5.543 8.196.242z" fill="#222834" fill-rule="evenodd"/></svg><svg width="16" height="16" viewBox="0 0 16 16" id="discard_red" x="45" y="83"><title>discard_red</title><path d="M8 0C3.582 0 0 3.582 0 8c0 4.42 3.582 8 8 8 4.42 0 8-3.58 8-8 0-4.418-3.58-8-8-8zm3.707 5.047L8.734 8.02l2.63 2.933c.21.208.21.547 0 .754-.206.208-.545.208-.752 0l-2.63-2.932-2.933 2.932c-.21.208-.548.208-.756 0-.208-.207-.208-.546 0-.754L7.267 7.98l-2.63-2.933c-.208-.208-.208-.546 0-.754.208-.208.546-.208.754 0l2.632 2.933 2.932-2.933c.208-.208.546-.208.754 0 .208.208.207.546 0 .754z" fill="#F77070" fill-rule="evenodd"/></svg><svg width="5" height="26" viewBox="0 0 5 26" id="dragndrop" x="71"><title>dragndrop</title><g fill="#7E8491" fill-rule="evenodd"><path d="M0 0h2v2H0zM3 0h2v2H3zM0 4h2v2H0zM3 4h2v2H3zM0 8h2v2H0zM3 8h2v2H3zM0 12h2v2H0zM3 12h2v2H3zM0 16h2v2H0zM3 16h2v2H3zM0 20h2v2H0zM3 20h2v2H3zM0 24h2v2H0zM3 24h2v2H3z"/></g></svg><svg width="19" height="10" viewBox="0 0 19 10" id="eye" x="42" y="29"><title>eye</title><g fill="#475062" fill-rule="evenodd"><path d="M18.112 4.07C16.362 2.665 13.42.624 9.717.555h-.022c-3.7.07-6.647 2.11-8.395 3.513-.084.067-.657.5-.667 1.054-.007.39.178.678.443.92 1.428 1.362 4.545 3.785 8.62 3.804h.022c4.082-.02 7.19-2.442 8.618-3.806.264-.24.448-.528.44-.918-.01-.555-.58-.986-.664-1.055zM9.706 8.8c-2.002-.014-3.622-1.62-3.622-3.6 0-1.978 1.62-3.583 3.622-3.596 2.008.013 3.622 1.619 3.622 3.597 0 1.98-1.613 3.586-3.622 3.6z"/><path d="M9.718 3.803h-.022c-.767.02-1.385.638-1.385 1.398 0 .762.618 1.38 1.385 1.398h.023c.774-.017 1.384-.637 1.384-1.397-.002-.76-.612-1.378-1.384-1.397z"/></g></svg><svg width="22" height="25" viewBox="0 0 22 25" id="file" x="76"><title>file</title><g fill="#C4C7CF" fill-rule="evenodd"><path d="M10.975 18.777c-.19 0-.38-.072-.527-.215l-4.625-4.566c-.29-.287-.29-.752 0-1.04.29-.286.76-.286 1.052 0l3.355 3.313V.734c0-.406.333-.735.745-.735.41 0 .744.33.744.735v15.48l3.358-3.262c.292-.284.762-.282 1.05.006.29.286.288.75-.002 1.036L11.5 18.562c-.145.143-.335.215-.525.215z"/><path d="M10.988 24.976c-6.05 0-10.974-4.86-10.974-10.833 0-4.73 3.062-8.875 7.62-10.318.39-.124.81.09.935.475.124.387-.09.8-.482.924-3.94 1.247-6.586 4.83-6.586 8.92 0 5.162 4.255 9.363 9.486 9.363 5.23 0 9.485-4.2 9.485-9.364 0-4.088-2.646-7.672-6.585-8.92-.392-.123-.607-.536-.48-.923.124-.386.542-.6.934-.475 4.557 1.443 7.62 5.59 7.62 10.318 0 5.973-4.923 10.833-10.974 10.833z"/></g></svg><svg width="20" height="18" viewBox="0 0 20 18" id="image" x="27" y="43"><title>image</title><path d="M18.72 15.703c0 .556-.448 1.008-1.006 1.008H4.75c-.556 0-1.006-.456-1.006-1.007V4.875c0-.557.448-1.008 1.006-1.008h12.964c.555 0 1.006.457 1.006 1.008v10.828zM4.5 2.583c-1.107 0-2.004.895-2.004 2v11.413c0 1.104.89 2 2.004 2h13.463c1.107 0 2.005-.896 2.005-2V4.582c0-1.104-.89-2-2.005-2H4.5zm1.53 10.92h10.405l-2.08-6.427-3.123 4.284-2.08-2.142-3.123 4.284zm1.04-6.427c-.576 0-1.04.48-1.04 1.07 0 .593.464 1.072 1.04 1.072.575 0 1.04-.48 1.04-1.07 0-.593-.465-1.072-1.04-1.072zM0 13.426c0 1.105.894 2 1.248 2V2.292c0-.55.45-.994.99-.994h15.234c0-.71-.89-1.284-2.005-1.284H2.004C.897.014 0 .91 0 2.014v11.413z" fill="#475062" fill-rule="evenodd"/></svg><svg width="15" height="15" viewBox="0 0 15 15" id="info" x="98" y="68"><title>info</title><path d="M7.22 0C3.233 0 0 3.233 0 7.22c0 3.987 3.233 7.22 7.22 7.22 3.987 0 7.22-3.233 7.22-7.22C14.44 3.233 11.207 0 7.22 0zm-.01 3.26c.163-.175.36-.265.586-.265.184 0 .346.066.467.192.123.124.185.283.185.473 0 .237-.083.447-.247.626-.166.184-.363.278-.58.278-.182 0-.342-.068-.464-.196-.12-.125-.182-.29-.182-.486 0-.242.08-.45.237-.622zm1.204 6.802c-.6.563-1.026.914-1.306 1.074-.3.17-.545.254-.752.254-.206 0-.374-.068-.5-.204-.12-.13-.183-.306-.183-.523 0-.554.314-1.84.96-3.93.01-.036.02-.07.025-.1-.024.01-.052.024-.085.044-.052.033-.213.16-.685.62-.072.07-.184.077-.264.015l-.278-.215c-.045-.034-.073-.086-.078-.142-.005-.056.014-.11.052-.153.434-.478.84-.825 1.205-1.032.382-.215.705-.32.988-.32.182 0 .33.045.438.135.12.1.182.236.182.396 0 .106-.05.38-.42 1.617-.526 1.767-.652 2.41-.66 2.63.1-.058.335-.226.84-.7.077-.073.2-.07.277.004l.246.242c.04.038.062.09.06.146 0 .055-.022.107-.062.144z" fill="#8AB8D9" fill-rule="evenodd"/></svg><svg width="19" height="18" viewBox="0 0 19 18" id="invisible" x="47" y="43"><title>invisible</title><g fill="none" fill-rule="evenodd"><path d="M18.112 7.07c-1.75-1.404-4.692-3.445-8.395-3.514h-.022c-3.7.07-6.647 2.11-8.395 3.513-.084.067-.657.5-.667 1.054-.007.39.178.678.443.918 1.428 1.364 4.545 3.787 8.62 3.806h.022c4.082-.02 7.19-2.442 8.618-3.806.264-.24.448-.528.44-.918-.01-.555-.58-.987-.664-1.055zM9.706 11.8c-2.002-.014-3.622-1.62-3.622-3.6 0-1.978 1.62-3.583 3.622-3.596 2.008.013 3.622 1.619 3.622 3.597 0 1.98-1.613 3.586-3.622 3.6z" fill="#475062"/><path d="M9.718 6.803h-.022c-.767.02-1.385.638-1.385 1.398 0 .762.618 1.38 1.385 1.398h.023c.774-.017 1.384-.637 1.384-1.397-.002-.76-.612-1.378-1.384-1.397z" fill="#475062"/><path d="M16.5.5L1.453 16.55M17.225 1.177L2.178 17.225" stroke="#475062" stroke-linecap="square"/><path d="M17.954 1.86L2.91 17.91" stroke="#FFF" stroke-linecap="square"/></g></svg><svg width="11" height="16" viewBox="0 0 11 16" id="left-arrow" x="105" y="83"><title>left-arrow</title><path d="M10.343 1.072L9.243 0 .54 7.996l8.702 7.996 1.1-1.072L2.81 7.996l7.535-6.924z" fill="#7E8491" fill-rule="evenodd"/></svg><svg width="11" height="16" viewBox="0 0 11 16" id="left-arrow_blue" y="100"><title>left-arrow_blue</title><path d="M10.343 1.072L9.243 0 .54 7.996l8.702 7.996 1.1-1.072L2.81 7.996l7.535-6.924z" fill="#69A2CA" fill-rule="evenodd"/></svg><svg width="14" height="14" viewBox="0 0 14 14" id="link" x="96" y="100"><title>link</title><path d="M5.127 11.143l-.708.695c-.615.6-1.614.602-2.228 0-.295-.29-.457-.673-.457-1.082 0-.408.162-.792.457-1.08L4.8 7.12c.54-.53 1.557-1.31 2.297-.583.34.334.89.33 1.227-.004.338-.336.336-.88-.004-1.212-1.26-1.233-3.12-1.005-4.742.584L.97 8.46C.344 9.07 0 9.887 0 10.755c0 .87.344 1.684.97 2.298.644.63 1.49.946 2.335.946.846 0 1.692-.315 2.336-.946l.71-.695c.34-.335.342-.877.004-1.213-.337-.335-.887-.337-1.227-.004zm7.902-9.926C11.676-.108 9.784-.18 8.532 1.047l-.883.866c-.34.333-.342.875-.004 1.21.337.337.886.34 1.227.006l.882-.867c.65-.636 1.498-.372 2.052.17.296.29.458.674.458 1.082 0 .41-.162.793-.457 1.082L9.026 7.323c-1.272 1.246-1.87.66-2.124.412-.34-.334-.89-.332-1.226.004-.338.335-.336.877.004 1.21.584.573 1.25.857 1.95.857.855 0 1.76-.426 2.618-1.268l2.782-2.727c.625-.613.97-1.43.97-2.298 0-.868-.345-1.684-.97-2.298z" fill="#475062" fill-rule="evenodd"/></svg><svg width="18" height="19" viewBox="0 0 18 19" id="logout" y="64"><title>Logout</title><g transform="rotate(-90 9 9)" fill="#FFF" fill-rule="evenodd"><path d="M16.724 8.053v5.792c0 1.602-1.304 2.906-2.906 2.906H2.932c-1.602 0-2.905-1.303-2.905-2.905V8.053c0-.162.13-.293.293-.293.162 0 .293.13.293.293v5.792c0 1.28 1.04 2.32 2.32 2.32h10.885c1.28 0 2.32-1.04 2.32-2.32V8.053c0-.162.13-.293.292-.293.163 0 .294.13.294.293z" stroke="#FFF" stroke-width=".7"/><path d="M7.894 9.84l-2.79-2.9c-.243-.252-.64-.252-.883 0-.243.255-.243.667 0 .92l3.857 4.006c.244.254.64.254.884 0l3.857-4.006c.122-.127.183-.293.183-.46 0-.165-.06-.332-.183-.46-.244-.252-.64-.252-.884 0l-2.79 2.9V.706c0-.36-.28-.65-.624-.65-.346 0-.626.29-.626.65V9.84z"/></g></svg><svg width="21" height="43" viewBox="0 0 21 43" id="next"><title>next</title><path d="M1.77.656L20.95 21.58 1.77 42.5l-.995-1.148L18.903 21.58.775 1.804 1.77.655z" fill="#FFF" fill-rule="evenodd"/></svg><svg width="12" height="16" viewBox="0 0 12 16" id="password" x="62" y="100"><title>password</title><path d="M10.615 4c0-2.205-2.58-4-4.615-4-2.036 0-4.615 1.794-4.615 4v3C.62 7 0 7.673 0 8.5v6c0 .827.62 1.5 1.385 1.5h9.23C11.38 16 12 15.327 12 14.5v-6c0-.827-.62-1.5-1.385-1.5V4zM6 1c1.527 0 3.692 1.345 3.692 3v3H2.308V4c0-1.655 2.165-3 3.692-3zm4.615 14h-9.23c-.255 0-.462-.224-.462-.5v-6c0-.276.207-.5.462-.5h9.23c.255 0 .462.224.462.5v6c0 .276-.207.5-.462.5zm-4.153-3.86v-1.14c0-.277-.207-.5-.462-.5s-.462.223-.462.5v1.14c-.274.172-.46.49-.46.86 0 .552.412 1 .922 1s.923-.448.923-1c0-.37-.186-.688-.46-.86v-.002z" fill="#FFF" fill-rule="evenodd"/></svg><svg width="12" height="16" viewBox="0 0 12 16" id="password_red" x="61" y="83"><title>password_red</title><path d="M10.615 4c0-2.205-2.58-4-4.615-4-2.036 0-4.615 1.794-4.615 4v3C.62 7 0 7.673 0 8.5v6c0 .827.62 1.5 1.385 1.5h9.23C11.38 16 12 15.327 12 14.5v-6c0-.827-.62-1.5-1.385-1.5V4zM6 1c1.527 0 3.692 1.345 3.692 3v3H2.308V4c0-1.655 2.165-3 3.692-3zm4.615 14h-9.23c-.255 0-.462-.224-.462-.5v-6c0-.276.207-.5.462-.5h9.23c.255 0 .462.224.462.5v6c0 .276-.207.5-.462.5zm-4.153-3.86v-1.14c0-.277-.207-.5-.462-.5s-.462.223-.462.5v1.14c-.274.172-.46.49-.46.86 0 .552.412 1 .922 1s.923-.448.923-1c0-.37-.186-.688-.46-.86v-.002z" fill="#F77070" fill-rule="evenodd"/></svg><svg width="16" height="16" viewBox="0 0 16 16" id="pen" x="73" y="83"><title>pen</title><path d="M9.95 2.678l3.254 3.267-8.24 8.27-3.252-3.267 8.237-8.27zm5.724-.788L14.222.433c-.56-.563-1.472-.563-2.034 0l-1.39 1.395 3.254 3.267 1.622-1.627c.435-.437.435-1.142 0-1.578zM.01 15.54c-.06.267.18.507.447.442l3.627-.883L.83 11.83.01 15.54z" fill="#475062" fill-rule="evenodd"/></svg><svg width="27" height="21" viewBox="0 0 27 21" id="photo" y="43"><title>photo</title><g transform="translate(.75 .388)" fill="#ADB2BB" fill-rule="evenodd"><path d="M24.223 3.416H18.88l-.182-1.286-.14-.866c-.055-.35-.238-.64-.526-.88-.295-.25-.61-.378-.958-.378h-8.69c-.347 0-.666.125-.958.377-.29.252-.446.547-.5.88l-.138.867-.194 1.286H1.277C.57 3.416 0 3.99 0 4.674v14.26c0 .71.57 1.284 1.277 1.284h22.946c.708 0 1.277-.573 1.277-1.285V4.673c0-.684-.57-1.257-1.277-1.257zm-.264 15.25H1.526V4.955h5.067c.763 0 1.422-.572 1.527-1.314l.18-1.286.14-.797h8.606l.125.797.195 1.286c.112.74.778 1.314 1.514 1.314h5.08v13.713z"/><path d="M12.73 5.36c-1.57 0-2.93.572-4.054 1.705-1.125 1.132-1.694 2.502-1.694 4.082s.57 2.95 1.694 4.08c1.124 1.133 2.485 1.67 4.053 1.693 3.11.046 5.783-2.67 5.746-5.773-.02-1.594-.57-2.95-1.693-4.082-1.125-1.133-2.47-1.706-4.054-1.706zm2.97 8.792c-.82.824-1.805 1.23-2.97 1.23-1.153 0-2.138-.405-2.957-1.23-.82-.825-1.222-1.83-1.222-3.005 0-1.16.403-2.167 1.223-2.992.82-.825 1.804-1.244 2.956-1.244 1.165 0 2.15.42 2.97 1.245.82.825 1.235 1.83 1.235 2.992 0 1.174-.416 2.18-1.235 3.005z"/></g></svg><svg width="21" height="43" viewBox="0 0 21 43" id="prev" x="21"><title>prev</title><path d="M19.845 42.373L.662 21.45 19.845.53l.994 1.148L2.71 21.45l18.13 19.774-.995 1.15z" fill="#FFF" fill-rule="evenodd"/></svg><svg width="14" height="14" viewBox="0 0 14 14" id="rejected" x="74" y="100"><title>rejected</title><path d="M13.47.422L7.092 6.79.717.42l-.532.53L6.56 7.32.718 13.154l.53.53L7.094 7.85l5.844 5.836.532-.53L7.623 7.32 14 .952l-.53-.53z" fill="#E00404" fill-rule="evenodd"/></svg><svg width="20" height="19" viewBox="0 0 20 19" id="resize" x="76" y="45"><title>resize</title><path d="M18.867 14.394H16.16V4.234l2.175-2.173c.247-.247.247-.648 0-.895s-.65-.247-.896 0L15.264 3.34H5.105V.632c0-.35-.283-.633-.632-.633-.35 0-.634.284-.634.633V3.34H1.132c-.35 0-.633.283-.633.633 0 .35.284.633.633.633H3.84v10.42c0 .35.283.635.633.635h10.42v2.707c0 .35.285.633.634.633.35 0 .634-.284.634-.633V15.66h2.707c.35 0 .633-.283.633-.633 0-.35-.284-.633-.633-.633zm-4.87-9.788l-8.89 8.892V4.606h8.89zm-7.995 9.788l8.892-8.892v8.892H6.002z" fill="#FFF" fill-rule="evenodd"/></svg><svg width="11" height="16" viewBox="0 0 11 16" id="right-arrow" x="27" y="100"><title>right-arrow</title><path d="M.657 14.928L1.757 16l8.702-7.996L1.757.008.658 1.08 8.19 8.004.657 14.928z" fill="#7E8491" fill-rule="evenodd"/></svg><svg width="11" height="16" viewBox="0 0 11 16" id="right-arrow_blue" x="38" y="100"><title>right-arrow_blue</title><path d="M.657 14.928L1.757 16l8.702-7.996L1.757.008.658 1.08 8.19 8.004.657 14.928z" fill="#69A2CA" fill-rule="evenodd"/></svg><svg width="16" height="17" viewBox="0 0 16 17" id="search" x="17" y="83"><title>search</title><path d="M11.113 11.076c1.053-1.174 1.71-2.746 1.71-4.478C12.824 2.966 9.954 0 6.416 0 2.877 0 .005 2.966.005 6.598c0 3.632 2.872 6.598 6.41 6.598 1.44 0 2.764-.488 3.837-1.314l4.766 4.907c.116.118.26.178.406.178.145 0 .3-.06.406-.18.222-.228.222-.606 0-.845l-4.717-4.867zM1.166 6.598c0-2.976 2.35-5.404 5.25-5.404 2.89 0 5.248 2.418 5.248 5.404 0 2.986-2.35 5.404-5.25 5.404S1.167 9.574 1.167 6.598z" fill="#7E8491" opacity=".6" fill-rule="evenodd"/></svg><svg width="16" height="17" viewBox="0 0 16 17" id="search_blue" x="98" y="51"><title>search_blue</title><path d="M11.113 11.076c1.053-1.174 1.71-2.746 1.71-4.478C12.824 2.966 9.954 0 6.416 0 2.877 0 .005 2.966.005 6.598c0 3.632 2.872 6.598 6.41 6.598 1.44 0 2.764-.488 3.837-1.314l4.766 4.907c.116.118.26.178.406.178.145 0 .3-.06.406-.18.222-.228.222-.606 0-.845l-4.717-4.867zM1.166 6.598c0-2.976 2.35-5.404 5.25-5.404 2.89 0 5.248 2.418 5.248 5.404 0 2.986-2.35 5.404-5.25 5.404S1.167 9.574 1.167 6.598z" fill="#57B5FA" fill-rule="evenodd"/></svg><svg width="17" height="17" viewBox="0 0 17 17" id="select-close" x="98" y="34"><title>select-close</title><path d="M8.778.38c-4.418 0-8 3.583-8 8 0 4.42 3.582 8 8 8 4.42 0 8-3.58 8-8 0-4.417-3.58-8-8-8zm3.706 5.048L9.512 8.402l2.63 2.932c.21.208.21.547 0 .754-.206.208-.545.208-.752 0L8.76 9.156l-2.934 2.932c-.208.208-.546.208-.754 0-.208-.207-.208-.546 0-.754L8.045 8.36 5.415 5.43c-.208-.208-.208-.546 0-.754.208-.208.546-.208.754 0L8.8 7.607l2.93-2.933c.21-.208.548-.208.756 0 .208.208.206.546-.002.754z" fill="#475062" fill-rule="evenodd"/></svg><svg width="14" height="8" viewBox="0 0 14 8" id="select2" x="54" y="64"><title>select2</title><path d="M.948 1.097c.29-.29.756-.29 1.044 0L7.105 6.22l5.114-5.123c.287-.29.755-.29 1.043 0 .288.29.288.757 0 1.046L7.628 7.788c-.29.29-.756.29-1.044 0L.948 2.143C.804 1.998.732 1.81.732 1.62c0-.19.072-.378.216-.523z" fill="#475062" opacity=".6" fill-rule="evenodd"/></svg><svg width="17" height="17" viewBox="0 0 17 17" id="settings" y="83"><title>settings</title><g fill="#FFF" fill-rule="evenodd"><path d="M16.82 7.236c-.04-.263-.223-.483-.474-.57l-1.334-.473c-.08-.222-.168-.438-.267-.647l.606-1.27c.116-.24.09-.522-.07-.737-.51-.692-1.122-1.3-1.816-1.806-.215-.157-.5-.184-.74-.07l-1.277.603c-.21-.1-.427-.187-.65-.266L10.32.676c-.09-.25-.31-.43-.573-.47C8.81.06 8.116.06 7.177.204c-.263.04-.483.22-.573.47L6.13 2c-.223.08-.44.168-.65.267l-1.277-.603c-.24-.114-.525-.087-.74.07-.694.506-1.305 1.114-1.817 1.805-.158.214-.185.497-.07.736l.606 1.27c-.1.21-.188.425-.267.647L.58 6.665c-.25.09-.432.308-.473.57C.034 7.712 0 8.116 0 8.513c0 .396.034.802.107 1.277.04.262.223.482.474.57l1.335.472c.08.222.168.438.267.647l-.607 1.27c-.114.238-.087.52.07.735.512.69 1.123 1.3 1.818 1.806.215.158.5.186.74.07l1.277-.602c.21.1.427.187.65.266l.475 1.326c.09.25.31.43.573.47.47.073.89.108 1.285.108.396 0 .816-.035 1.285-.107.264-.04.484-.22.574-.47l.474-1.326c.223-.08.44-.167.65-.266l1.277.603c.242.116.526.088.74-.07.697-.507 1.308-1.115 1.818-1.805.16-.214.186-.497.07-.736l-.605-1.27c.1-.21.188-.426.267-.648l1.334-.472c.25-.088.434-.308.474-.57.072-.476.106-.882.106-1.278 0-.395-.033-.8-.106-1.276zM15.44 9.15l-1.25.44c-.22.078-.387.255-.453.477-.112.375-.26.73-.437 1.057-.11.203-.118.446-.02.654l.57 1.187c-.275.327-.58.63-.908.9l-1.193-.562c-.21-.1-.455-.092-.66.018-.328.178-.686.324-1.064.436-.222.065-.4.232-.477.45l-.446 1.244c-.455.046-.826.046-1.28 0l-.446-1.244c-.078-.217-.255-.385-.477-.45-.378-.112-.736-.258-1.063-.435-.205-.11-.45-.117-.66-.017l-1.192.564c-.33-.273-.632-.574-.907-.902l.568-1.187c.1-.208.092-.45-.02-.654-.177-.325-.324-.68-.436-1.058-.066-.22-.234-.398-.453-.475l-1.25-.44c-.024-.227-.036-.436-.036-.638s.013-.41.036-.636l1.25-.443c.22-.077.388-.253.454-.474.112-.377.26-.733.437-1.06.11-.202.118-.446.02-.653l-.57-1.187c.276-.328.58-.63.908-.902l1.194.564c.208.1.453.092.657-.018.328-.178.685-.324 1.064-.435.223-.066.4-.234.478-.45l.445-1.245c.45-.047.823-.047 1.28 0L9.55 2.82c.076.216.254.384.476.45.38.11.737.256 1.064.434.205.11.45.118.66.018l1.192-.564c.33.272.632.574.907.902l-.57 1.187c-.098.208-.09.45.02.654.18.328.326.683.437 1.058.066.222.234.398.453.475l1.25.443c.024.226.036.435.036.636 0 .202-.012.41-.035.637z"/><path d="M8.463 5.004c-1.85 0-3.358 1.498-3.358 3.34 0 1.84 1.507 3.338 3.358 3.338 1.852 0 3.36-1.498 3.36-3.34 0-1.84-1.508-3.338-3.36-3.338zm0 5.236c-1.05 0-1.907-.85-1.907-1.897 0-1.046.856-1.897 1.907-1.897 1.052 0 1.908.85 1.908 1.897 0 1.046-.855 1.897-1.907 1.897z"/></g></svg><svg width="10" height="7" viewBox="0 0 10 7" id="sortable-down" x="61" y="29"><title>sortable-down</title><path d="M0 0h10L5 7 0 0z" fill="#222834" opacity=".2" fill-rule="evenodd"/></svg><svg width="10" height="7" viewBox="0 0 10 7" id="sortable-up" x="82" y="64"><title>sortable-up</title><path d="M0 7h10L5 0 0 7z" fill="#222834" opacity=".2" fill-rule="evenodd"/></svg><svg width="12" height="16" viewBox="0 0 12 16" id="trash" x="33" y="83"><title>trash</title><g fill="#475062" fill-rule="evenodd"><path d="M1.406 15.21c.02.43.375.77.81.77h7.55c.433 0 .79-.34.807-.77l.54-11.32H.866l.54 11.32zM7.698 6.7c0-.18.147-.326.328-.326h.526c.18 0 .328.146.328.326v6.467c0 .18-.147.325-.328.325h-.526c-.18 0-.328-.146-.328-.326V6.7zm-2.3 0c0-.18.148-.326.33-.326h.525c.18 0 .328.146.328.326v6.467c0 .18-.146.325-.327.325h-.526c-.18 0-.328-.146-.328-.326V6.7zm-2.3 0c0-.18.148-.326.33-.326h.525c.182 0 .33.146.33.326v6.467c0 .18-.148.325-.33.325h-.525c-.182 0-.33-.146-.33-.326V6.7zM11.47.823H7.99V.168c0-.093-.076-.168-.17-.168H4.162c-.093 0-.168.075-.168.168v.655H.508C.228.823 0 1.05 0 1.328v1.585h11.98V1.328c0-.28-.228-.505-.51-.505z"/></g></svg><svg width="13" height="16" viewBox="0 0 13 16" id="trash_white" x="49" y="100"><title>thrash_white</title><g transform="translate(.5)" fill="#FFF" fill-rule="evenodd"><path d="M1.406 15.21c.02.43.375.77.81.77h7.55c.433 0 .79-.34.807-.77l.54-11.32H.866l.54 11.32zM7.698 6.7c0-.18.147-.326.328-.326h.526c.18 0 .328.146.328.326v6.467c0 .18-.147.325-.328.325h-.526c-.18 0-.328-.146-.328-.326V6.7zm-2.3 0c0-.18.148-.326.33-.326h.525c.18 0 .328.146.328.326v6.467c0 .18-.146.325-.327.325h-.526c-.18 0-.328-.146-.328-.326V6.7zm-2.3 0c0-.18.148-.326.33-.326h.525c.182 0 .33.146.33.326v6.467c0 .18-.148.325-.33.325h-.525c-.182 0-.33-.146-.33-.326V6.7zM11.47.823H7.99V.168c0-.093-.076-.168-.17-.168H4.162c-.093 0-.168.075-.168.168v.655H.508C.228.823 0 1.05 0 1.328v1.585h11.98V1.328c0-.28-.228-.505-.51-.505z"/></g></svg><svg width="16" height="16" viewBox="0 0 16 16" id="user" x="11" y="100"><title>user</title><path d="M8 11c2.482 0 4.5-2.468 4.5-5.5S10.48 0 8 0C6.777 0 5.633.587 4.78 1.653 3.955 2.684 3.5 4.053 3.5 5.5 3.5 8.532 5.52 11 8 11zM8 1c1.93 0 3.5 2.02 3.5 4.5S9.93 10 8 10 4.5 7.98 4.5 5.5 6.07 1 8 1zm3.5 9c-.277 0-.5.223-.5.5s.223.5.5.5c1.93 0 3.5 1.57 3.5 3.5 0 .275-.225.5-.5.5h-13c-.276 0-.5-.225-.5-.5C1 12.57 2.57 11 4.5 11c.277 0 .5-.223.5-.5s-.223-.5-.5-.5C2.018 10 0 12.018 0 14.5c0 .827.673 1.5 1.5 1.5h13c.827 0 1.5-.673 1.5-1.5 0-2.48-2.018-4.5-4.5-4.5z" fill="#FFF" fill-rule="evenodd"/></svg><svg width="29" height="29" viewBox="0 0 29 29" id="user-photo" x="42"><title>user-photo</title><g transform="translate(1 1)" fill="none" fill-rule="evenodd"><path d="M10.163 9.258l.024-.027c.1-.073.148-.187.13-.307-.245-1.5-.084-2.125-.03-2.282.43-1.335 1.774-1.953 2.038-2.063.056-.022.16-.054.266-.07l.032-.008.216-.013.002.014.05-.004c.045-.005.087-.01.14-.023l.05-.01c.04 0 .565.068 1.343.31l.54.19c.99.296 1.445.848 1.53.96.79.91.58 2.287.383 3.026-.023.087-.01.176.04.25l.044.057c.057.08.11.384-.063 1.033-.033.197-.105.357-.21.465-.04.044-.068.1-.078.163-.268 1.594-1.674 3.378-3.157 3.378-1.257 0-2.693-1.64-2.95-3.377-.01-.065-.037-.123-.08-.172-.11-.113-.178-.276-.22-.517-.125-.453-.138-.82-.04-.972zM7.34 16.17c.054-.07.358-.43.973-.67.54-.168 1.877-.62 2.608-1.157.035-.018.07-.055.097-.084.067-.075.17-.188.293-.303l.068-.066.07.068c.643.616 1.355.954 2.005.954.682 0 1.386-.3 2.036-.87l.05-.043.138.067c.124.115.337.273.436.32l.127.063-.012.014.056.035c.12.073.25.144.404.22.155.07.284.12.418.166.113.038.714.242 1.398.564l.13.04c.67.26.967.62.996.66.794 1.195 1.1 3.426 1.212 4.67-2.074 1.71-4.683 2.65-7.35 2.65s-5.276-.94-7.35-2.652c.11-1.24.413-3.464 1.197-4.647z" fill="#DEF4FE"/><circle stroke="#DEF4FE" opacity=".5" cx="13.5" cy="13.5" r="13.5"/></g></svg><svg width="16" height="16" viewBox="0 0 16 16" id="user_red" x="89" y="83"><title>user_red</title><path d="M8 11c2.482 0 4.5-2.468 4.5-5.5S10.48 0 8 0C6.777 0 5.633.587 4.78 1.653 3.955 2.684 3.5 4.053 3.5 5.5 3.5 8.532 5.52 11 8 11zM8 1c1.93 0 3.5 2.02 3.5 4.5S9.93 10 8 10 4.5 7.98 4.5 5.5 6.07 1 8 1zm3.5 9c-.277 0-.5.223-.5.5s.223.5.5.5c1.93 0 3.5 1.57 3.5 3.5 0 .275-.225.5-.5.5h-13c-.276 0-.5-.225-.5-.5C1 12.57 2.57 11 4.5 11c.277 0 .5-.223.5-.5s-.223-.5-.5-.5C2.018 10 0 12.018 0 14.5c0 .827.673 1.5 1.5 1.5h13c.827 0 1.5-.673 1.5-1.5 0-2.48-2.018-4.5-4.5-4.5z" fill="#F77070" fill-rule="evenodd"/></svg></svg>