<?xml version="1.0" encoding="UTF-8" standalone="no"?>
<svg width="18px" height="17px" viewBox="0 0 18 17" version="1.1" xmlns="http://www.w3.org/2000/svg" xmlns:xlink="http://www.w3.org/1999/xlink" xmlns:sketch="http://www.bohemiancoding.com/sketch/ns">
    <!-- Generator: Sketch 3.3.1 (12002) - http://www.bohemiancoding.com/sketch -->
    <title>add</title>
    <desc>Created with Sketch.</desc>
    <defs></defs>
    <g id="User-page" stroke="none" stroke-width="1" fill="none" fill-rule="evenodd" sketch:type="MSPage">
        <g id="Table-page" sketch:type="MSArtboardGroup" transform="translate(-293.000000, -77.000000)" fill="#FFFFFF">
            <g id="add" sketch:type="MSLayerGroup" transform="translate(293.500000, 77.000000)">
                <g id="_x38__3_" sketch:type="MSShapeGroup">
                    <path d="M8.5,0 C3.80533333,0 0,3.80533333 0,8.5 C0,13.1946667 3.80533333,17 8.5,17 C13.1946667,17 17,13.1941111 17,8.5 C17,3.80588889 13.1946667,0 8.5,0 L8.5,0 Z M8.5,15.9375 C4.39236111,15.9375 1.0625,12.6076389 1.0625,8.5 C1.0625,4.39236111 4.39236111,1.0625 8.5,1.0625 C12.6076389,1.0625 15.9375,4.39236111 15.9375,8.5 C15.9375,12.6076389 12.6076389,15.9375 8.5,15.9375 L8.5,15.9375 Z M11.6875,7.96875 L9.03125,7.96875 L9.03125,5.3125 C9.03125,5.01925 8.79325,4.78125 8.5,4.78125 C8.20675,4.78125 7.96875,5.01925 7.96875,5.3125 L7.96875,7.96875 L5.3125,7.96875 C5.01925,7.96875 4.78125,8.20675 4.78125,8.5 C4.78125,8.79325 5.01925,9.03125 5.3125,9.03125 L7.96875,9.03125 L7.96875,11.6875 C7.96875,11.98075 8.20675,12.21875 8.5,12.21875 C8.79325,12.21875 9.03125,11.98075 9.03125,11.6875 L9.03125,9.03125 L11.6875,9.03125 C11.98075,9.03125 12.21875,8.79325 12.21875,8.5 C12.21875,8.20675 11.98075,7.96875 11.6875,7.96875 L11.6875,7.96875 Z" id="add"></path>
                </g>
            </g>
        </g>
    </g>
</svg>