<svg xmlns="http://www.w3.org/2000/svg" xmlns:xlink="http://www.w3.org/1999/xlink" xmlns:sketch="http://www.bohemiancoding.com/sketch/ns" width="23px" height="23px" viewBox="0 0 23 23" version="1.1">
  <!-- Generator: Sketch 3.3 (11970) - http://www.bohemiancoding.com/sketch -->
  <title>Imported Layers</title>
  <desc>Created with Sketch.</desc>
  <defs/>
  <g id="User-page" stroke="none" stroke-width="1" fill="none" fill-rule="evenodd" sketch:type="MSPage">
      <g id="Hints" sketch:type="MSArtboardGroup" transform="translate(-783.000000, -336.000000)">
          <rect id="Rectangle-330-Copy-4" stroke="#D8DFEA" fill="#FFFFFF" sketch:type="MSShapeGroup" x="25.5" y="27" width="1139" height="642" rx="4"/>
          <g id="Imported-Layers" sketch:type="MSLayerGroup" transform="translate(783.000000, 336.000000)" fill="#01C05F">
              <path d="M18.5,1.5 C20.154,1.5 21.5,2.846 21.5,4.5 L21.5,18.5 C21.5,20.154 20.154,21.5 18.5,21.5 L4.5,21.5 C2.846,21.5 1.5,20.154 1.5,18.5 L1.5,4.5 C1.5,2.846 2.846,1.5 4.5,1.5 L18.5,1.5 M18.5,0.5 L4.5,0.5 C2.3,0.5 0.5,2.3 0.5,4.5 L0.5,18.5 C0.5,20.7 2.3,22.5 4.5,22.5 L18.5,22.5 C20.7,22.5 22.5,20.7 22.5,18.5 L22.5,4.5 C22.5,2.3 20.7,0.5 18.5,0.5" id="Fill-1" sketch:type="MSShapeGroup"/>
              <path d="M9.037,13.919 L5.803,10.686 L4.725,11.764 L9.037,16.075 L18.277,6.836 L17.199,5.758 L9.037,13.919" id="Fill-2" sketch:type="MSShapeGroup"/>
          </g>
      </g>
  </g>
</svg>
