<svg xmlns="http://www.w3.org/2000/svg" xmlns:xlink="http://www.w3.org/1999/xlink" xmlns:sketch="http://www.bohemiancoding.com/sketch/ns" width="23px" height="23px" viewBox="0 0 23 23" version="1.1">
  <!-- Generator: Sketch 3.3 (11970) - http://www.bohemiancoding.com/sketch -->
  <title>check-normal</title>
  <desc>Created with Sketch.</desc>
  <defs/>
  <g id="User-page" stroke="none" stroke-width="1" fill="none" fill-rule="evenodd" sketch:type="MSPage">
      <g id="Hints" sketch:type="MSArtboardGroup" transform="translate(-667.000000, -330.000000)">
          <rect id="Rectangle-330-Copy-4" stroke="#D8DFEA" fill="#FFFFFF" sketch:type="MSShapeGroup" x="25.5" y="27" width="1139" height="642" rx="4"/>
          <g id="check-normal" sketch:type="MSLayerGroup" transform="translate(667.000000, 330.000000)" fill="#D8DFEA">
              <path d="M18.5,1.5 C20.2,1.5 21.5,2.8 21.5,4.5 L21.5,18.5 C21.5,20.2 20.2,21.5 18.5,21.5 L4.5,21.5 C2.8,21.5 1.5,20.2 1.5,18.5 L1.5,4.5 C1.5,2.8 2.8,1.5 4.5,1.5 L18.5,1.5 L18.5,1.5 Z M18.5,0.5 L4.5,0.5 C2.3,0.5 0.5,2.3 0.5,4.5 L0.5,18.5 C0.5,20.7 2.3,22.5 4.5,22.5 L18.5,22.5 C20.7,22.5 22.5,20.7 22.5,18.5 L22.5,4.5 C22.5,2.3 20.7,0.5 18.5,0.5 L18.5,0.5 L18.5,0.5 Z" id="Shape" sketch:type="MSShapeGroup"/>
          </g>
      </g>
  </g>
</svg>
