<?xml version="1.0" encoding="UTF-8" standalone="no"?>
<svg width="5px" height="26px" viewBox="0 0 5 26" version="1.1" xmlns="http://www.w3.org/2000/svg" xmlns:xlink="http://www.w3.org/1999/xlink" xmlns:sketch="http://www.bohemiancoding.com/sketch/ns">
    <!-- Generator: Sketch 3.3.1 (12002) - http://www.bohemiancoding.com/sketch -->
    <title>dragndrop</title>
    <desc>Created with Sketch.</desc>
    <defs></defs>
    <g id="User-page" stroke="none" stroke-width="1" fill="none" fill-rule="evenodd" sketch:type="MSPage">
        <g id="Table-page" sketch:type="MSArtboardGroup" transform="translate(-287.000000, -612.000000)" fill="#7E8491">
            <g id="dragndrop" sketch:type="MSLayerGroup" transform="translate(287.000000, 612.000000)">
                <rect id="Rectangle-389" sketch:type="MSShapeGroup" x="0" y="0" width="2" height="2"></rect>
                <rect id="Rectangle-389-Copy" sketch:type="MSShapeGroup" x="3" y="0" width="2" height="2"></rect>
                <rect id="Rectangle-389-Copy-3" sketch:type="MSShapeGroup" x="0" y="4" width="2" height="2"></rect>
                <rect id="Rectangle-389-Copy-2" sketch:type="MSShapeGroup" x="3" y="4" width="2" height="2"></rect>
                <rect id="Rectangle-389-Copy-5" sketch:type="MSShapeGroup" x="0" y="8" width="2" height="2"></rect>
                <rect id="Rectangle-389-Copy-4" sketch:type="MSShapeGroup" x="3" y="8" width="2" height="2"></rect>
                <rect id="Rectangle-389-Copy-7" sketch:type="MSShapeGroup" x="0" y="12" width="2" height="2"></rect>
                <rect id="Rectangle-389-Copy-6" sketch:type="MSShapeGroup" x="3" y="12" width="2" height="2"></rect>
                <rect id="Rectangle-389-Copy-9" sketch:type="MSShapeGroup" x="0" y="16" width="2" height="2"></rect>
                <rect id="Rectangle-389-Copy-8" sketch:type="MSShapeGroup" x="3" y="16" width="2" height="2"></rect>
                <rect id="Rectangle-389-Copy-11" sketch:type="MSShapeGroup" x="0" y="20" width="2" height="2"></rect>
                <rect id="Rectangle-389-Copy-10" sketch:type="MSShapeGroup" x="3" y="20" width="2" height="2"></rect>
                <rect id="Rectangle-389-Copy-13" sketch:type="MSShapeGroup" x="0" y="24" width="2" height="2"></rect>
                <rect id="Rectangle-389-Copy-12" sketch:type="MSShapeGroup" x="3" y="24" width="2" height="2"></rect>
            </g>
        </g>
    </g>
</svg>