<?xml version="1.0" encoding="UTF-8" standalone="no"?>
<svg width="19px" height="10px" viewBox="0 0 19 10" version="1.1" xmlns="http://www.w3.org/2000/svg" xmlns:xlink="http://www.w3.org/1999/xlink" xmlns:sketch="http://www.bohemiancoding.com/sketch/ns">
    <!-- Generator: Sketch 3.3.1 (12002) - http://www.bohemiancoding.com/sketch -->
    <title>eye</title>
    <desc>Created with Sketch.</desc>
    <defs></defs>
    <g id="User-page" stroke="none" stroke-width="1" fill="none" fill-rule="evenodd" sketch:type="MSPage">
        <g id="Table-page3" sketch:type="MSArtboardGroup" transform="translate(-1273.000000, -188.000000)" fill="#475062">
            <g id="eye" sketch:type="MSLayerGroup" transform="translate(1273.000000, 188.000000)">
                <g id="Group" sketch:type="MSShapeGroup">
                    <path d="M18.1120667,4.069375 C16.3621667,2.665625 13.4203333,0.625 9.7166,0.55625 L9.7052,0.55625 L9.6938,0.55625 C5.99386667,0.62625 3.0476,2.665625 1.2996,4.069375 C1.216,4.1375 0.643466667,4.569375 0.633333333,5.12375 C0.626366667,5.51375 0.810666667,5.801875 1.07603333,6.0425 C2.5042,7.40625 5.62083333,9.829375 9.69506667,9.8475 L9.69506667,9.84875 L9.70646667,9.84875 L9.71786667,9.84875 L9.71786667,9.8475 C13.7997,9.829375 16.9087333,7.40625 18.3356333,6.0425 C18.6003667,5.801875 18.7840333,5.51375 18.7770667,5.12375 C18.7669333,4.569375 18.1956667,4.1375 18.1120667,4.069375 L18.1120667,4.069375 Z M9.70646667,8.79875 C7.70386667,8.785625 6.08443333,7.18 6.08443333,5.20125 C6.08443333,3.221875 7.70386667,1.616875 9.70646667,1.604375 C11.7141333,1.616875 13.3278667,3.2225 13.3278667,5.20125 C13.3278667,7.18 11.7147667,8.785625 9.70646667,8.79875 L9.70646667,8.79875 Z" id="Shape"></path>
                    <path d="M9.71786667,3.803125 C9.71406667,3.8025 9.71026667,3.8025 9.70646667,3.8025 L9.69506667,3.8025 L9.69506667,3.803125 C8.92873333,3.821875 8.3106,4.44125 8.3106,5.20125 C8.3106,5.961875 8.9281,6.58125 9.69506667,6.598125 L9.69506667,6.599375 C9.69886667,6.599375 9.70266667,6.598125 9.70646667,6.598125 C9.70963333,6.598125 9.71343333,6.599375 9.71786667,6.599375 L9.71786667,6.598125 C10.4918,6.58125 11.1023333,5.960625 11.1023333,5.20125 C11.0998,4.44 10.4899,3.821875 9.71786667,3.803125 L9.71786667,3.803125 Z" id="Shape"></path>
                </g>
            </g>
        </g>
    </g>
</svg>