<?xml version="1.0" encoding="UTF-8" standalone="no"?>
<svg width="23px" height="25px" viewBox="0 0 23 25" version="1.1" xmlns="http://www.w3.org/2000/svg" xmlns:xlink="http://www.w3.org/1999/xlink" xmlns:sketch="http://www.bohemiancoding.com/sketch/ns">
    <!-- Generator: Sketch 3.3.1 (12002) - http://www.bohemiancoding.com/sketch -->
    <title>download191 copy</title>
    <desc>Created with Sketch.</desc>
    <defs></defs>
    <g id="Page-1" stroke="none" stroke-width="1" fill="none" fill-rule="evenodd" sketch:type="MSPage">
        <g id="white-ph" sketch:type="MSArtboardGroup" transform="translate(-337.000000, -243.000000)" fill="#3790D7">
            <g id="download191-copy" sketch:type="MSLayerGroup" transform="translate(337.777778, 243.000000)">
                <g id="Group" sketch:type="MSShapeGroup">
                    <path d="M10.9745088,18.7771335 C10.7842116,18.7771335 10.5935264,18.7054158 10.4483929,18.5619256 L5.82279597,13.9956783 C5.53214106,13.7089168 5.53214106,13.243709 5.82279597,12.9569475 C6.11345088,12.6700219 6.5843728,12.6700219 6.87502771,12.9569475 L10.2303879,16.2690372 L10.2303879,0.734573304 C10.2303879,0.328829322 10.5634912,0 10.9745088,0 C11.3853048,0 11.7186297,0.328829322 11.7186297,0.734573304 L11.7186297,16.2143326 L15.0784232,12.9525164 C15.3702418,12.6688184 15.8396121,12.6714989 16.1283275,12.9590263 C16.4170428,13.2461707 16.4158791,13.7096827 16.1263879,13.9956783 L11.5007909,18.5619256 C11.3554912,18.7053611 11.164806,18.7771335 10.9745088,18.7771335 L10.9745088,18.7771335 Z" id="Shape"></path>
                    <path d="M10.9876977,24.9757112 C4.93664484,24.9757112 0.013743073,20.1160284 0.013743073,14.1425602 C0.013743073,9.4142779 3.075733,5.26810722 7.63289169,3.82516411 C8.02357179,3.70142232 8.44312343,3.91411379 8.56886146,4.30032823 C8.69421159,4.68676149 8.47875567,5.10032823 8.08752141,5.22428884 C4.14846851,6.47133479 1.50198489,10.0553063 1.50198489,14.1425602 C1.50198489,19.3058534 5.75729471,23.5065646 10.9876977,23.5065646 C16.218267,23.5065646 20.4734106,19.3058534 20.4734106,14.1425602 C20.4734106,10.0553063 17.8267053,6.4713895 13.8878741,5.22428884 C13.4964181,5.10032823 13.2809622,4.68676149 13.406534,4.30032823 C13.5317179,3.91449672 13.9498841,3.7012035 14.3421159,3.82516411 C18.8994962,5.26810722 21.9616524,9.4142779 21.9616524,14.1425602 C21.9616524,20.1160284 17.0387506,24.9757112 10.9876977,24.9757112 L10.9876977,24.9757112 Z" id="Shape"></path>
                </g>
            </g>
        </g>
    </g>
</svg>