<?xml version="1.0" encoding="UTF-8" standalone="no"?>
<svg width="20px" height="18px" viewBox="0 0 20 18" version="1.1" xmlns="http://www.w3.org/2000/svg" xmlns:xlink="http://www.w3.org/1999/xlink" xmlns:sketch="http://www.bohemiancoding.com/sketch/ns">
    <!-- Generator: Sketch 3.3.1 (12002) - http://www.bohemiancoding.com/sketch -->
    <title>image</title>
    <desc>Created with Sketch.</desc>
    <defs></defs>
    <g id="User-page" stroke="none" stroke-width="1" fill="none" fill-rule="evenodd" sketch:type="MSPage">
        <g id="Table-page3" sketch:type="MSArtboardGroup" transform="translate(-1199.000000, -184.000000)" fill="#475062">
            <g id="image" sketch:type="MSLayerGroup" transform="translate(1199.000000, 184.000000)">
                <path d="M18.7197119,15.7028649 C18.7197119,16.2594723 18.2715171,16.7106918 17.713856,16.7106918 L4.74980659,16.7106918 C4.19428767,16.7106918 3.74395062,16.2535762 3.74395062,15.7028649 L3.74395062,4.87477742 C3.74395062,4.31817003 4.19214541,3.86695059 4.74980659,3.86695059 L17.713856,3.86695059 C18.2693749,3.86695059 18.7197119,4.32406614 18.7197119,4.87477742 L18.7197119,15.7028649 Z M4.50014117,2.58255529 C3.39324365,2.58255529 2.49592593,3.47782161 2.49592593,4.58168498 L2.49592593,15.9960421 C2.49592593,17.1001309 3.38636542,17.9951718 4.50014117,17.9951718 L17.9633156,17.9951718 C19.0702131,17.9951718 19.9675309,17.0999054 19.9675309,15.9960421 L19.9675309,4.58168498 C19.9675309,3.47759614 19.0770914,2.58255529 17.9633156,2.58255529 L4.50014117,2.58255529 Z M6.02878259,13.5016101 L16.4347977,13.5016101 L14.3535397,7.07594757 L11.231773,11.3597697 L9.15061799,9.21785862 L6.02878259,13.5016101 L6.02878259,13.5016101 Z M7.06932576,7.07594757 C6.49415149,7.07594757 6.02878259,7.55500024 6.02878259,8.14695607 C6.02878259,8.7389119 6.49415149,9.21785862 7.06932576,9.21785862 C7.64450004,9.21785862 8.10997188,8.7389119 8.10997188,8.14695607 C8.10997188,7.55500024 7.64460298,7.07594757 7.06932576,7.07594757 L7.06932576,7.07594757 Z M0,13.4273307 C0,14.5314226 0.893729199,15.4264659 1.24802469,15.4264659 L1.24802469,15.4264659 L1.24802469,2.29159566 C1.24802469,1.7429129 1.69887101,1.29811765 2.23846547,1.29811765 L17.4716872,1.29811765 L17.4716872,1.29811765 C17.4716872,0.588812495 16.5812435,0.0138070588 15.4674626,0.0138070588 L2.00422468,0.0138070588 C0.897321955,0.0138070588 0,0.909075837 0,2.01294224 L0,13.4273307 Z" id="Shape" sketch:type="MSShapeGroup"></path>
            </g>
        </g>
    </g>
</svg>