<?xml version="1.0" encoding="UTF-8" standalone="no"?>
<svg width="15px" height="15px" viewBox="0 0 15 15" version="1.1" xmlns="http://www.w3.org/2000/svg" xmlns:xlink="http://www.w3.org/1999/xlink" xmlns:sketch="http://www.bohemiancoding.com/sketch/ns">
    <!-- Generator: Sketch 3.3.1 (12002) - http://www.bohemiancoding.com/sketch -->
    <title>info</title>
    <desc>Created with Sketch.</desc>
    <defs></defs>
    <g id="Page-1" stroke="none" stroke-width="1" fill="none" fill-rule="evenodd" sketch:type="MSPage">
        <g id="Form-tasks" sketch:type="MSArtboardGroup" transform="translate(-763.000000, -128.000000)" fill="#8AB8D9">
            <path d="M770.22,128 C766.232538,128 763,131.232571 763,135.220072 C763,139.207429 766.232538,142.44 770.22,142.44 C774.207462,142.44 777.44,139.207429 777.44,135.220072 C777.44,131.232571 774.207462,128 770.22,128 L770.22,128 Z M770.210903,131.260151 C770.372631,131.084559 770.569737,130.995319 770.796445,130.995319 C770.980266,130.995319 771.141994,131.061455 771.263434,131.186651 C771.385597,131.311125 771.447544,131.4704 771.447544,131.659566 C771.447544,131.896673 771.364659,132.107499 771.201342,132.286124 C771.03355,132.47038 770.83731,132.564096 770.618688,132.564096 C770.438188,132.564096 770.278338,132.496372 770.156464,132.368288 C770.035746,132.242803 769.974087,132.078763 769.974087,131.881511 C769.974087,131.639927 770.053796,131.430834 770.210903,131.260151 L770.210903,131.260151 Z M771.41361,138.06247 C770.815072,138.625347 770.387793,138.976243 770.107946,139.135662 C769.809326,139.306633 769.563269,139.390097 769.356055,139.390097 C769.15014,139.390097 768.982203,139.321506 768.856575,139.186491 C768.734846,139.055952 768.673187,138.879638 768.673187,138.663036 C768.673187,138.109401 768.986824,136.82365 769.632436,134.732284 C769.643411,134.696906 769.65193,134.66326 769.657706,134.631925 C769.633592,134.642322 769.605722,134.657051 769.573377,134.677123 C769.520526,134.71048 769.35952,134.836831 768.888343,135.297183 C768.816432,135.367506 768.703944,135.374004 768.62438,135.312345 L768.345688,135.096753 C768.301213,135.06253 768.273199,135.011123 768.26829,134.955096 C768.26338,134.899212 768.282152,134.843762 768.31984,134.802174 C768.754051,134.324061 769.159382,133.97692 769.524714,133.770426 C769.907085,133.554979 770.230397,133.450144 770.512699,133.450144 C770.69522,133.450144 770.842653,133.495486 770.951242,133.585303 C771.069361,133.683785 771.131742,133.820533 771.131742,133.980963 C771.131742,134.086232 771.081779,134.36045 770.712982,135.597249 C770.18621,137.364434 770.060294,138.005865 770.051774,138.22781 C770.15141,138.168894 770.387215,138.001388 770.890594,137.528329 C770.969003,137.454107 771.092032,137.455551 771.168997,137.53064 L771.416065,137.771501 C771.455486,137.809912 771.47758,137.862619 771.477002,137.917636 C771.476424,137.972653 771.453609,138.024781 771.41361,138.06247 L771.41361,138.06247 Z" id="info" sketch:type="MSShapeGroup"></path>
        </g>
    </g>
</svg>