<?xml version="1.0" encoding="UTF-8" standalone="no"?>
<svg width="14px" height="13px" viewBox="0 0 14 13" version="1.1" xmlns="http://www.w3.org/2000/svg" xmlns:xlink="http://www.w3.org/1999/xlink" xmlns:sketch="http://www.bohemiancoding.com/sketch/ns">
    <!-- Generator: Sketch 3.3.1 (12002) - http://www.bohemiancoding.com/sketch -->
    <title>resize</title>
    <desc>Created with Sketch.</desc>
    <defs></defs>
    <g id="User-page" stroke="none" stroke-width="1" fill="none" fill-rule="evenodd" sketch:type="MSPage">
        <g id="Photo-full-crop" sketch:type="MSArtboardGroup" transform="translate(-862.500000, -564.000000)" fill="#FFFFFF">
            <path d="M875.566667,573.848592 L873.715259,573.848592 L873.715259,566.897579 L875.202805,565.410032 C875.372013,565.240789 875.372013,564.966437 875.202805,564.797195 C875.033597,564.627987 874.759176,564.627987 874.589968,564.797195 L873.102421,566.284741 L866.151408,566.284741 L866.151408,564.433333 C866.151408,564.194029 865.957379,564 865.718075,564 C865.478771,564 865.284741,564.194029 865.284741,564.433333 L865.284741,566.284741 L863.433333,566.284741 C863.194029,566.284741 863,566.478771 863,566.718075 C863,566.957379 863.194029,567.151408 863.433333,567.151408 L865.284741,567.151408 L865.284741,574.281925 C865.284741,574.521229 865.478771,574.715259 865.718075,574.715259 L872.848592,574.715259 L872.848592,576.566667 C872.848592,576.805971 873.042621,577 873.281925,577 C873.521229,577 873.715259,576.805971 873.715259,576.566667 L873.715259,574.715259 L875.566667,574.715259 C875.805936,574.715259 876,574.521229 876,574.281925 C876,574.042621 875.805936,573.848592 875.566667,573.848592 L875.566667,573.848592 Z M872.235755,567.151408 L866.151408,573.235755 L866.151408,567.151408 L872.235755,567.151408 L872.235755,567.151408 Z M866.764245,573.848592 L872.848592,567.764245 L872.848592,573.848592 L866.764245,573.848592 L866.764245,573.848592 Z" id="resize" sketch:type="MSShapeGroup"></path>
        </g>
    </g>
</svg>