<?xml version="1.0" encoding="UTF-8" standalone="no"?>
<svg width="14px" height="14px" viewBox="0 0 14 14" version="1.1" xmlns="http://www.w3.org/2000/svg" xmlns:xlink="http://www.w3.org/1999/xlink" xmlns:sketch="http://www.bohemiancoding.com/sketch/ns">
    <!-- Generator: Sketch 3.3.1 (12002) - http://www.bohemiancoding.com/sketch -->
    <title>link</title>
    <desc>Created with Sketch.</desc>
    <defs></defs>
    <g id="User-page" stroke="none" stroke-width="1" fill="none" fill-rule="evenodd" sketch:type="MSPage">
        <g id="Table-page3" sketch:type="MSArtboardGroup" transform="translate(-1239.000000, -186.000000)" fill="#475062">
            <g id="link" sketch:type="MSLayerGroup" transform="translate(1239.000000, 186.000000)">
                <g id="connector3" sketch:type="MSShapeGroup">
                    <path d="M5.12715,11.1431358 L4.41875,11.8379506 C3.804675,12.4390864 2.80595,12.4396049 2.192225,11.8379506 C1.897175,11.5487901 1.735125,11.1647407 1.735125,10.7564938 C1.735125,10.3482469 1.89735,9.96402469 2.19205,9.6748642 L4.79955,7.11977778 C5.33995,6.59054321 6.356525,5.81120988 7.097475,6.53696296 C7.4375,6.87054321 7.98665,6.8682963 8.324225,6.53264198 C8.661975,6.19698765 8.659875,5.65444444 8.31985,5.32120988 C7.060375,4.08679012 5.1989,4.31493827 3.5777,5.90367901 L0.970025,8.45893827 C0.3444,9.07234568 0,9.88814815 0,10.7564938 C0,11.6248395 0.3444,12.4404691 0.9702,13.0538765 C1.614025,13.6847407 2.45945,14 3.305225,14 C4.151175,14 4.99695,13.6847407 5.641125,13.0535309 L6.35005,12.3585432 C6.6899,12.0253086 6.691825,11.4829383 6.354075,11.1471111 C6.01685,10.8116296 5.467175,10.8097284 5.12715,11.1431358 L5.12715,11.1431358 Z M13.02945,1.21748148 C11.6767,-0.108197531 9.7853,-0.180098765 8.533,1.04706173 L7.64995,1.91281481 C7.309925,2.24622222 7.307825,2.78841975 7.645575,3.12424691 C7.983325,3.46007407 8.532475,3.46197531 8.8725,3.1285679 L9.7552,2.26333333 C10.403925,1.62711111 11.253375,1.8908642 11.807425,2.43375309 C12.102825,2.72291358 12.26505,3.1071358 12.26505,3.51538272 C12.26505,3.92380247 12.10265,4.30802469 11.807775,4.59718519 L9.0258,7.3228642 C7.753725,8.56938272 7.156975,7.98432099 6.90235,7.73474074 C6.562325,7.40133333 6.01335,7.40340741 5.6756,7.73906173 C5.33785,8.07471605 5.33995,8.61725926 5.679975,8.95049383 C6.26395,9.52293827 6.930525,9.80674074 7.6293,9.80674074 C8.484875,9.80674074 9.388575,9.38120988 10.247825,8.53861728 L13.0298,5.81293827 C13.65525,5.19953086 14,4.38355556 14,3.51520988 C14,2.64720988 13.65525,1.83123457 13.02945,1.21748148 L13.02945,1.21748148 Z" id="Shape"></path>
                </g>
            </g>
        </g>
    </g>
</svg>