<?xml version="1.0" encoding="UTF-8" standalone="no"?>
<svg width="18px" height="19px" viewBox="0 0 18 19" version="1.1" xmlns="http://www.w3.org/2000/svg" xmlns:xlink="http://www.w3.org/1999/xlink" xmlns:sketch="http://www.bohemiancoding.com/sketch/ns">
    <!-- Generator: Sketch 3.3.1 (12002) - http://www.bohemiancoding.com/sketch -->
    <title>Logout</title>
    <desc>Created with Sketch.</desc>
    <defs></defs>
    <g id="Page-1" stroke="none" stroke-width="1" fill="none" fill-rule="evenodd" sketch:type="MSPage">
        <g id="Edit-page-Copy-4" sketch:type="MSArtboardGroup" transform="translate(-218.000000, -751.000000)" fill="#FFFFFF">
            <g id="Logout" sketch:type="MSLayerGroup" transform="translate(226.500000, 760.500000) rotate(-90.000000) translate(-226.500000, -760.500000) translate(218.000000, 752.000000)">
                <path d="M16.7236034,8.05272414 L16.7236034,13.8453276 C16.7236034,15.447431 15.4201724,16.7508621 13.818069,16.7508621 L2.9325,16.7508621 C1.33039655,16.7508621 0.0269655172,15.447431 0.0269655172,13.8453276 L0.0269655172,8.05272414 C0.0269655172,7.89093103 0.157982759,7.75962069 0.320068966,7.75962069 C0.482155172,7.75962069 0.613172414,7.89093103 0.613172414,8.05272414 L0.613172414,13.8453276 C0.613172414,15.1241379 1.65368966,16.1646552 2.9325,16.1646552 L13.818069,16.1646552 C15.0968793,16.1646552 16.1373966,15.1241379 16.1373966,13.8453276 L16.1373966,8.05272414 C16.1373966,7.89093103 16.2684138,7.75962069 16.4305,7.75962069 C16.5925862,7.75962069 16.7236034,7.89063793 16.7236034,8.05272414 L16.7236034,8.05272414 Z" id="Shape" stroke="#FFFFFF" stroke-width="0.7" sketch:type="MSShapeGroup"></path>
                <path d="M4.73714613,5.43147363 L7.63425811,2.6431125 C7.88806356,2.39899457 7.88806356,2.00298908 7.63425811,1.75890727 C7.38045265,1.5146449 6.96897562,1.5146449 6.7155454,1.75890727 L2.70929157,5.61459818 C2.45548611,5.8587161 2.45548611,6.25475771 2.70929157,6.49880341 L6.7155454,10.3546749 C6.8424106,10.4768422 7.00867494,10.5378355 7.17490175,10.5378355 C7.34112857,10.5378355 7.5073929,10.4768422 7.63425811,10.3546749 C7.88806356,10.110557 7.88806356,9.71455146 7.63425811,9.47050576 L4.73714613,6.68200019 L13.8691895,6.68200019 C14.2279843,6.68200019 14.5189375,6.40202293 14.5189375,6.05671885 C14.5189375,5.71141477 14.2280218,5.43147363 13.8691895,5.43147363 L4.73714613,5.43147363 Z" id="Shape" sketch:type="MSShapeGroup" transform="translate(8.518937, 6.056773) rotate(-90.000000) translate(-8.518937, -6.056773) "></path>
            </g>
        </g>
    </g>
</svg>