<?xml version="1.0" encoding="UTF-8" standalone="no"?>
<svg width="12px" height="16px" viewBox="0 0 12 16" version="1.1" xmlns="http://www.w3.org/2000/svg" xmlns:xlink="http://www.w3.org/1999/xlink" xmlns:sketch="http://www.bohemiancoding.com/sketch/ns">
    <!-- Generator: Sketch 3.3.1 (12002) - http://www.bohemiancoding.com/sketch -->
    <title>password</title>
    <desc>Created with Sketch.</desc>
    <defs></defs>
    <g id="User-page" stroke="none" stroke-width="1" fill="none" fill-rule="evenodd" sketch:type="MSPage">
        <g id="Login" sketch:type="MSArtboardGroup" transform="translate(-574.000000, -304.000000)" fill="#FFFFFF">
            <g id="password" sketch:type="MSLayerGroup" transform="translate(574.000000, 304.000000)">
                <g id="Padlock" sketch:type="MSShapeGroup">
                    <path d="M10.6153846,4 C10.6153846,1.7945 8.03584615,0 6,0 C3.96415385,0 1.38461538,1.7945 1.38461538,4 L1.38461538,7 C0.621230769,7 0,7.673 0,8.5 L0,14.5 C0,15.327 0.621230769,16 1.38461538,16 L10.6153846,16 C11.3787692,16 12,15.327 12,14.5 L12,8.5 C12,7.673 11.3787692,7 10.6153846,7 L10.6153846,4 Z M6,1 C7.52723077,1 9.69230769,2.3455 9.69230769,4 L9.69230769,7 L2.30769231,7 L2.30769231,4 C2.30769231,2.3455 4.47276923,1 6,1 Z M10.6153846,15 L1.38461538,15 C1.13030769,15 0.923076923,14.776 0.923076923,14.5 L0.923076923,8.5 C0.923076923,8.224 1.13030769,8 1.38461538,8 L10.6153846,8 C10.8696923,8 11.0769231,8.224 11.0769231,8.5 L11.0769231,14.5 C11.0769231,14.776 10.8696923,15 10.6153846,15 Z M6.46153846,11.1385 L6.46153846,10 C6.46153846,9.7235 6.25476923,9.5 6,9.5 C5.74523077,9.5 5.53846154,9.7235 5.53846154,10 L5.53846154,11.1385 C5.26384615,11.312 5.07692308,11.6305 5.07692308,12 C5.07692308,12.552 5.49046154,13 6,13 C6.50953846,13 6.92307692,12.552 6.92307692,12 C6.92307692,11.631 6.73661538,11.312 6.46153846,11.1385 L6.46153846,11.1385 Z" id="Shape"></path>
                </g>
            </g>
        </g>
    </g>
</svg>