<?xml version="1.0" encoding="UTF-8" standalone="no"?>
<svg width="27px" height="21px" viewBox="0 0 27 21" version="1.1" xmlns="http://www.w3.org/2000/svg" xmlns:xlink="http://www.w3.org/1999/xlink" xmlns:sketch="http://www.bohemiancoding.com/sketch/ns">
    <!-- Generator: Sketch 3.3.1 (12002) - http://www.bohemiancoding.com/sketch -->
    <title>photo</title>
    <desc>Created with Sketch.</desc>
    <defs></defs>
    <g id="User-page" stroke="none" stroke-width="1" fill="none" fill-rule="evenodd" sketch:type="MSPage">
        <g id="Edit-page" sketch:type="MSArtboardGroup" transform="translate(-586.000000, -1812.000000)" fill="#ADB2BB">
            <g id="photo" sketch:type="MSLayerGroup" transform="translate(586.750000, 1812.387931)">
                <g id="Group" sketch:type="MSShapeGroup">
                    <path d="M24.2227917,3.41628488 L18.8787083,3.41628488 L18.6980417,2.13041572 L18.5594583,1.26350512 C18.5035,0.914282086 18.319875,0.62472446 18.03175,0.382873981 C17.7367917,0.135359064 17.421125,0.00562247818 17.0740417,0.00562247818 L8.3845,0.00562247818 C8.03741667,0.00562247818 7.71820833,0.131163185 7.4265,0.382873981 C7.13508333,0.634584776 6.98020833,0.929806839 6.92691667,1.26350512 L6.78804167,2.13041572 L6.59375,3.41628488 L1.27725,3.41628488 C0.569166667,3.41628488 0,3.98948394 0,4.67446122 L0,18.9325624 C0,19.6452744 0.569166667,20.2184315 1.27725,20.2184315 L24.2227917,20.2184315 C24.9308333,20.2184315 25.5,19.6452744 25.5,18.9325624 L25.5,4.67446122 C25.5,3.98948394 24.9308333,3.41628488 24.2227917,3.41628488 L24.2227917,3.41628488 Z M23.9592083,18.6669213 L1.52716667,18.6669213 L1.52716667,4.95386482 L6.59375,4.95386482 C7.35720833,4.95386482 8.01641667,4.38188257 8.120625,3.6399672 L8.301,2.35409805 L8.439875,1.55725862 L17.0461667,1.55725862 L17.1711667,2.35409805 L17.3654167,3.6399672 C17.477375,4.38070772 18.14275,4.95386482 18.8786667,4.95386482 L23.9591667,4.95386482 L23.9591667,18.6669213 L23.9592083,18.6669213 Z" id="Shape"></path>
                    <path d="M12.729125,5.35943851 C11.1607917,5.35943851 9.80033333,5.9323019 8.67591667,7.06460187 C7.5515,8.19690185 6.98233333,9.56689838 6.98233333,11.146563 C6.98233333,12.7258919 7.5515,14.0958885 8.67591667,15.2281884 C9.80033333,16.3604884 11.1607917,16.8960924 12.729125,16.9196313 C15.838875,16.9658699 18.5126667,14.2500031 18.4759583,11.146521 C18.4572917,9.55288414 17.9067917,8.19690185 16.782625,7.06455992 C15.6582083,5.9323019 14.3116667,5.35943851 12.729125,5.35943851 L12.729125,5.35943851 Z M15.6996667,14.1519454 C14.880875,14.9764776 13.8952917,15.3817996 12.729125,15.3817996 C11.5771667,15.3817996 10.591625,14.9765196 9.7725,14.1519454 C8.953375,13.3270775 8.55095833,12.320612 8.55095833,11.146563 C8.55095833,9.98623455 8.95341667,8.97972704 9.7725,8.15490109 C10.591625,7.33032691 11.5771667,6.91103269 12.729125,6.91103269 C13.8952917,6.91103269 14.880875,7.33032691 15.6996667,8.15490109 C16.51875,8.97976899 16.935125,9.98623455 16.935125,11.146563 C16.935125,12.3206539 16.51875,13.3270775 15.6996667,14.1519454 L15.6996667,14.1519454 Z" id="Shape"></path>
                </g>
            </g>
        </g>
    </g>
</svg>