<?xml version="1.0" encoding="UTF-8" standalone="no"?>
<svg width="20px" height="19px" viewBox="0 0 20 19" version="1.1" xmlns="http://www.w3.org/2000/svg" xmlns:xlink="http://www.w3.org/1999/xlink" xmlns:sketch="http://www.bohemiancoding.com/sketch/ns">
    <!-- Generator: Sketch 3.3.1 (12002) - http://www.bohemiancoding.com/sketch -->
    <title>resize</title>
    <desc>Created with Sketch.</desc>
    <defs></defs>
    <g id="User-page" stroke="none" stroke-width="1" fill="none" fill-rule="evenodd" sketch:type="MSPage">
        <g id="Photo-full" sketch:type="MSArtboardGroup" transform="translate(-598.500000, -15.000000)" fill="#FFFFFF">
            <g id="resize" sketch:type="MSLayerGroup" transform="translate(599.000000, 15.000000)">
                <g id="cropping4" sketch:type="MSShapeGroup">
                    <path d="M18.3666667,14.394096 L15.6607627,14.394096 L15.6607627,4.23492267 L17.8348693,2.060816 C18.0821733,1.81346133 18.0821733,1.41248533 17.8348693,1.16513067 C17.5875653,0.917826667 17.186488,0.917826667 16.939184,1.16513067 L14.7650773,3.33923733 L4.605904,3.33923733 L4.605904,0.633333333 C4.605904,0.283581333 4.32232267,0 3.97257067,0 C3.62281867,0 3.33923733,0.283581333 3.33923733,0.633333333 L3.33923733,3.33923733 L0.633333333,3.33923733 C0.283581333,3.33923733 0,3.62281867 0,3.97257067 C0,4.32232267 0.283581333,4.605904 0.633333333,4.605904 L3.33923733,4.605904 L3.33923733,15.0274293 C3.33923733,15.3771813 3.62281867,15.6607627 3.97257067,15.6607627 L14.394096,15.6607627 L14.394096,18.3666667 C14.394096,18.7164187 14.6776773,19 15.0274293,19 C15.3771813,19 15.6607627,18.7164187 15.6607627,18.3666667 L15.6607627,15.6607627 L18.3666667,15.6607627 C18.716368,15.6607627 19,15.3771813 19,15.0274293 C19,14.6776773 18.716368,14.394096 18.3666667,14.394096 L18.3666667,14.394096 Z M13.4984107,4.605904 L4.605904,13.4984107 L4.605904,4.605904 L13.4984107,4.605904 L13.4984107,4.605904 Z M5.50158933,14.394096 L14.394096,5.50158933 L14.394096,14.394096 L5.50158933,14.394096 L5.50158933,14.394096 Z" id="Shape"></path>
                </g>
            </g>
        </g>
    </g>
</svg>