<?xml version="1.0" encoding="UTF-8" standalone="no"?>
<svg width="16px" height="17px" viewBox="0 0 16 17" version="1.1" xmlns="http://www.w3.org/2000/svg" xmlns:xlink="http://www.w3.org/1999/xlink" xmlns:sketch="http://www.bohemiancoding.com/sketch/ns">
    <!-- Generator: Sketch 3.3.1 (12002) - http://www.bohemiancoding.com/sketch -->
    <title>search</title>
    <desc>Created with Sketch.</desc>
    <defs></defs>
    <g id="User-page" stroke="none" stroke-width="1" fill="none" fill-rule="evenodd" sketch:type="MSPage">
        <g id="Table-page2" sketch:type="MSArtboardGroup" transform="translate(-1399.000000, -75.000000)" fill="#7E8491" opacity="0.6">
            <g id="search" sketch:type="MSLayerGroup" transform="translate(1399.000000, 75.000000)">
                <path d="M11.1126652,11.076343 C12.1662431,9.90204339 12.8235394,8.32964876 12.8235394,6.59803719 C12.8235394,2.9656219 9.95275053,0 6.41501066,0 C2.87727079,0 0.00648187633,2.9656219 0.00648187633,6.59803719 C0.00648187633,10.2304525 2.87727079,13.1960744 6.41501066,13.1960744 C7.85524947,13.1960744 9.17946269,12.7084483 10.2523838,11.882438 L15.0176887,16.7886591 C15.1336802,16.9080806 15.2786695,16.9677913 15.4236588,16.9677913 C15.5686482,16.9677913 15.7232921,16.9080806 15.829629,16.7886591 C16.0519574,16.5597562 16.0519574,16.1816116 15.829629,15.9427686 L11.1126652,11.076343 L11.1126652,11.076343 Z M1.16639659,6.59803719 C1.16639659,3.62244008 3.51522388,1.19421488 6.41501066,1.19421488 C9.30514286,1.19421488 11.6636247,3.6125 11.6636247,6.59803719 C11.6636247,9.58357438 9.31479744,12.0018595 6.41501066,12.0018595 C3.51522388,12.0018595 1.16639659,9.5736343 1.16639659,6.59803719 L1.16639659,6.59803719 Z" id="Shape" sketch:type="MSShapeGroup"></path>
            </g>
        </g>
    </g>
</svg>