<?xml version="1.0" encoding="UTF-8" standalone="no"?>
<svg width="17px" height="16px" viewBox="0 0 17 16" version="1.1" xmlns="http://www.w3.org/2000/svg" xmlns:xlink="http://www.w3.org/1999/xlink" xmlns:sketch="http://www.bohemiancoding.com/sketch/ns">
    <!-- Generator: Sketch 3.3.1 (12002) - http://www.bohemiancoding.com/sketch -->
    <title>select2-add</title>
    <desc>Created with Sketch.</desc>
    <defs></defs>
    <g id="User-page" stroke="none" stroke-width="1" fill="none" fill-rule="evenodd" sketch:type="MSPage">
        <g id="Edit-page" sketch:type="MSArtboardGroup" transform="translate(-561.000000, -772.000000)" fill="#5AACEE">
            <g id="Добавить-+-add139-Copy-5" sketch:type="MSLayerGroup" transform="translate(561.500000, 770.000000)">
                <g id="add139" transform="translate(0.416667, 2.138889)" sketch:type="MSShapeGroup">
                    <g id="_x38__3_">
                        <path d="M7.86111111,0 C3.51931155,0 0,3.51931155 0,7.86111111 C0,12.2029107 3.51931155,15.7222222 7.86111111,15.7222222 C12.2029107,15.7222222 15.7222222,12.2023969 15.7222222,7.86111111 C15.7222222,3.51982534 12.2029107,0 7.86111111,0 L7.86111111,0 Z M7.86111111,14.7395833 C4.06221632,14.7395833 0.982638889,11.6600059 0.982638889,7.86111111 C0.982638889,4.06221632 4.06221632,0.982638889 7.86111111,0.982638889 C11.6600059,0.982638889 14.7395833,4.06221632 14.7395833,7.86111111 C14.7395833,11.6600059 11.6600059,14.7395833 7.86111111,14.7395833 L7.86111111,14.7395833 Z M10.8090278,7.36979167 L8.35243056,7.36979167 L8.35243056,4.91319444 C8.35243056,4.64198611 8.13231944,4.421875 7.86111111,4.421875 C7.58990278,4.421875 7.36979167,4.64198611 7.36979167,4.91319444 L7.36979167,7.36979167 L4.91319444,7.36979167 C4.64198611,7.36979167 4.421875,7.58990278 4.421875,7.86111111 C4.421875,8.13231944 4.64198611,8.35243056 4.91319444,8.35243056 L7.36979167,8.35243056 L7.36979167,10.8090278 C7.36979167,11.0802361 7.58990278,11.3003472 7.86111111,11.3003472 C8.13231944,11.3003472 8.35243056,11.0802361 8.35243056,10.8090278 L8.35243056,8.35243056 L10.8090278,8.35243056 C11.0802361,8.35243056 11.3003472,8.13231944 11.3003472,7.86111111 C11.3003472,7.58990278 11.0802361,7.36979167 10.8090278,7.36979167 L10.8090278,7.36979167 Z" id="select2-add"></path>
                    </g>
                </g>
            </g>
        </g>
    </g>
</svg>