<?xml version="1.0" encoding="UTF-8" standalone="no"?>
<svg width="17px" height="17px" viewBox="0 0 17 17" version="1.1" xmlns="http://www.w3.org/2000/svg" xmlns:xlink="http://www.w3.org/1999/xlink" xmlns:sketch="http://www.bohemiancoding.com/sketch/ns">
    <!-- Generator: Sketch 3.3.1 (12002) - http://www.bohemiancoding.com/sketch -->
    <title>settings</title>
    <desc>Created with Sketch.</desc>
    <defs></defs>
    <g id="User-page" stroke="none" stroke-width="1" fill="none" fill-rule="evenodd" sketch:type="MSPage">
        <g id="Dashboard" sketch:type="MSArtboardGroup" transform="translate(-218.000000, -842.000000)" fill="#FFFFFF">
            <g id="settings" sketch:type="MSLayerGroup" transform="translate(218.000000, 842.000000)">
                <g id="Group" sketch:type="MSShapeGroup">
                    <path d="M16.8198,7.235625 C16.77968,6.97270455 16.5973429,6.75334659 16.3456457,6.66457955 L15.0121657,6.19311932 C14.9332857,5.97096023 14.8438171,5.75498295 14.7446343,5.54605682 L15.3514857,4.27627273 C15.4660171,4.03682386 15.4388171,3.75361932 15.2806686,3.53947727 C14.7692114,2.84778977 14.1580857,2.24013636 13.4642914,1.73390341 C13.2487314,1.57655682 12.96488,1.54980114 12.7235771,1.66397159 L11.4473143,2.26689205 C11.2371943,2.16827273 11.0196914,2.07950568 10.7960686,2.00107386 L10.32172,0.674977273 C10.2324457,0.425193182 10.0124171,0.244375 9.74857714,0.204 C8.81114857,0.0607556818 8.11735429,0.0607556818 7.17846857,0.204 C6.91492,0.244375 6.6946,0.425193182 6.60532571,0.674977273 L6.13097714,2.00107386 C5.90735429,2.07950568 5.68985143,2.16827273 5.47992571,2.26689205 L4.20317714,1.66397159 C3.96236,1.54989773 3.67802286,1.57665341 3.46265714,1.73390341 C2.76886286,2.24013636 2.15773714,2.84778977 1.64628,3.53947727 C1.48803429,3.75361932 1.46093143,4.03672727 1.57546286,4.27627273 L2.18231429,5.54605682 C2.08313143,5.75459659 1.99385714,5.97105682 1.91478286,6.19311932 L0.581108571,6.6650625 C0.329605714,6.75382955 0.14756,6.97309091 0.107148571,7.235625 C0.0343885714,7.71085227 0.000388571429,8.11605114 0.000388571429,8.51246023 C0.000388571429,8.90828977 0.0343885714,9.31406818 0.107148571,9.78929545 C0.147268571,10.0522159 0.329605714,10.2715739 0.581302857,10.3603409 L1.91478286,10.8318011 C1.99385714,11.0543466 2.08342286,11.2704205 2.18231429,11.4793466 L1.57546286,12.7486477 C1.46093143,12.9880966 1.48813143,13.2713011 1.64608571,13.4849602 C2.15686286,14.1761648 2.76798857,14.7838182 3.46265714,15.291017 C3.67802286,15.4483636 3.96236,15.4756023 4.20337143,15.3609489 L5.47963429,14.7580284 C5.68975429,14.8566477 5.90725714,14.9454148 6.13088,15.0238466 L6.60522857,16.3499432 C6.69450286,16.5997273 6.91453143,16.7805455 7.17837143,16.8209205 C7.64737714,16.8927841 8.06761714,16.9275568 8.46337714,16.9275568 C8.85913714,16.9275568 9.27947429,16.8927841 9.74838286,16.8209205 C10.0121257,16.7805455 10.2322514,16.5997273 10.3215257,16.3499432 L10.7958743,15.0238466 C11.0194971,14.9454148 11.237,14.8566477 11.44712,14.7580284 L12.7233829,15.3609489 C12.9646857,15.4755057 13.2490229,15.448267 13.4643886,15.291017 C14.1598343,14.7829489 14.77096,14.1752955 15.2807657,13.4849602 C15.43872,13.2713011 15.46592,12.9880966 15.3513886,12.7486477 L14.7445371,11.4793466 C14.84372,11.2704205 14.9331886,11.0538636 15.0120686,10.8318011 L16.3455486,10.3603409 C16.5972457,10.2715739 16.7795829,10.0523125 16.8197029,9.78929545 C16.8924629,9.31406818 16.9264629,8.90838636 16.9264629,8.51246023 C16.9264629,8.11653409 16.89256,7.71075568 16.8198,7.235625 L16.8198,7.235625 Z M15.44076,9.14909091 L14.1897543,9.59147727 C13.9710857,9.66846023 13.8029314,9.84502841 13.7370686,10.0667045 C13.6253543,10.4423466 13.47828,10.7978011 13.2995371,11.1236989 C13.1886,11.3265398 13.1817029,11.5698523 13.2813714,11.7782955 L13.8487829,12.9649148 C13.5746457,13.2922614 13.2714629,13.5942045 12.94176,13.8664943 L11.7485543,13.302983 C11.5386286,13.2029148 11.2947029,13.2109318 11.0904114,13.3208523 C10.7621657,13.4983864 10.4044857,13.6444318 10.0264057,13.7557045 C9.80394857,13.821 9.62637143,13.9881023 9.54875429,14.2055284 L9.10364571,15.4499091 C8.64930857,15.4958864 8.27764,15.4958864 7.82330286,15.4499091 L7.37819429,14.2055284 C7.30048,13.9885852 7.12290286,13.8209034 6.90054286,13.7557045 C6.52226857,13.6444318 6.16429714,13.4983864 5.83653714,13.3208523 C5.63224571,13.2100625 5.38783429,13.2030114 5.17839429,13.302983 L3.98518857,13.8669773 C3.65577714,13.594108 3.35259429,13.2926477 3.07816571,12.9649148 L3.64557714,11.7782955 C3.74524571,11.5697557 3.73834857,11.3265398 3.62741143,11.1236989 C3.44915429,10.798767 3.30198286,10.4428295 3.18988,10.0662216 C3.12401714,9.84502841 2.95566857,9.66846023 2.73719429,9.59147727 L1.48618857,9.14909091 C1.46258286,8.92277841 1.45121714,8.71423864 1.45121714,8.51236364 C1.45121714,8.31048864 1.46258286,8.10243182 1.48618857,7.87611932 L2.73748571,7.43334659 C2.95586286,7.35636364 3.12401714,7.17979545 3.18988,6.95860227 C3.30178857,6.58296023 3.44896,6.22702273 3.62741143,5.90064205 C3.73834857,5.69828409 3.74524571,5.45448864 3.64557714,5.24652841 L3.07816571,4.05990909 C3.35278857,3.73217614 3.65597143,3.43023295 3.98518857,3.15784659 L5.17888,3.72184091 C5.38783429,3.82190909 5.63321714,3.81389205 5.83702286,3.70397159 C6.16458857,3.5264375 6.52226857,3.38039205 6.90054286,3.26911932 C7.123,3.20382386 7.30057714,3.03623864 7.37819429,2.81929545 L7.82330286,1.57491477 C8.27336571,1.52845455 8.64571429,1.52845455 9.10364571,1.57491477 L9.54875429,2.81929545 C9.62646857,3.03623864 9.80404571,3.20392045 10.0264057,3.26911932 C10.40468,3.38039205 10.7626514,3.5264375 11.0904114,3.70397159 C11.2947029,3.81476136 11.5386286,3.8218125 11.7485543,3.72184091 L12.94176,3.15784659 C13.2709771,3.43023295 13.57416,3.73217614 13.8487829,4.05990909 L13.2813714,5.24652841 C13.1817029,5.45458523 13.1886,5.69828409 13.2995371,5.90064205 C13.4785714,6.22798864 13.6256457,6.58344318 13.7370686,6.95811932 C13.8029314,7.17979545 13.9710857,7.35636364 14.1897543,7.43334659 L15.44076,7.87573295 C15.4643657,8.10204545 15.4757314,8.31058523 15.4757314,8.51246023 C15.4757314,8.71433523 15.4643657,8.92277841 15.44076,9.14909091 L15.44076,9.14909091 Z" id="Shape"></path>
                    <path d="M8.46347429,5.00360227 C6.61173714,5.00360227 5.10514857,6.50153409 5.10514857,8.34284659 C5.10514857,10.1841591 6.61164,11.6820909 8.46347429,11.6820909 C10.3153086,11.6820909 11.8218,10.1841591 11.8218,8.34284659 C11.8218,6.50153409 10.3152114,5.00360227 8.46347429,5.00360227 L8.46347429,5.00360227 Z M8.46347429,10.2395057 C7.41170857,10.2395057 6.55597714,9.38863636 6.55597714,8.34284659 C6.55597714,7.29705682 7.41170857,6.4461875 8.46347429,6.4461875 C9.51524,6.4461875 10.3709714,7.29705682 10.3709714,8.34284659 C10.3709714,9.38863636 9.51524,10.2395057 8.46347429,10.2395057 L8.46347429,10.2395057 Z" id="Shape"></path>
                </g>
            </g>
        </g>
    </g>
</svg>