<?xml version="1.0" encoding="UTF-8" standalone="no"?>
<svg width="13px" height="16px" viewBox="0 0 13 16" version="1.1" xmlns="http://www.w3.org/2000/svg" xmlns:xlink="http://www.w3.org/1999/xlink" xmlns:sketch="http://www.bohemiancoding.com/sketch/ns">
    <!-- Generator: Sketch 3.3.1 (12002) - http://www.bohemiancoding.com/sketch -->
    <title>thrash_white</title>
    <desc>Created with Sketch.</desc>
    <defs></defs>
    <g id="User-page" stroke="none" stroke-width="1" fill="none" fill-rule="evenodd" sketch:type="MSPage">
        <g id="Photo-full" sketch:type="MSArtboardGroup" transform="translate(-752.500000, -16.000000)" fill="#FFFFFF">
            <g id="thrash_white" sketch:type="MSLayerGroup" transform="translate(753.000000, 16.000000)">
                <g id="rubbish7-copy-8" sketch:type="MSShapeGroup">
                    <g id="Group">
                        <path d="M1.40647869,15.209154 C1.42461639,15.6398631 1.78107541,15.9797751 2.21457049,15.9797751 L9.76516721,15.9797751 C10.1986623,15.9797751 10.5551213,15.6398631 10.573259,15.209154 L11.1124721,3.8911687 L0.867265574,3.8911687 L1.40647869,15.209154 L1.40647869,15.209154 Z M7.69790164,6.70235697 C7.69790164,6.52201467 7.84497049,6.37574572 8.02642623,6.37574572 L8.55186885,6.37574572 C8.73320656,6.37574572 8.88039344,6.52197555 8.88039344,6.70235697 L8.88039344,13.1685868 C8.88039344,13.3489682 8.73332459,13.495198 8.55186885,13.495198 L8.02642623,13.495198 C7.84504918,13.495198 7.69790164,13.3490465 7.69790164,13.1685868 L7.69790164,6.70235697 L7.69790164,6.70235697 Z M5.3986623,6.70235697 C5.3986623,6.52201467 5.54573115,6.37574572 5.72714754,6.37574572 L6.25259016,6.37574572 C6.43392787,6.37574572 6.58107541,6.52197555 6.58107541,6.70235697 L6.58107541,13.1685868 C6.58107541,13.3489682 6.4340459,13.495198 6.25259016,13.495198 L5.72714754,13.495198 C5.54577049,13.495198 5.3986623,13.3490465 5.3986623,13.1685868 L5.3986623,6.70235697 L5.3986623,6.70235697 Z M3.09934426,6.70235697 C3.09934426,6.52201467 3.24641311,6.37574572 3.42782951,6.37574572 L3.95331148,6.37574572 C4.13468852,6.37574572 4.28179672,6.52197555 4.28179672,6.70235697 L4.28179672,13.1685868 C4.28179672,13.3489682 4.13472787,13.495198 3.95331148,13.495198 L3.42782951,13.495198 C3.24645246,13.495198 3.09934426,13.3490465 3.09934426,13.1685868 L3.09934426,6.70235697 L3.09934426,6.70235697 Z" id="Shape"></path>
                        <path d="M11.4714885,0.823198044 L7.98814426,0.823198044 L7.98814426,0.168410758 C7.98814426,0.0754229829 7.91232787,0 7.81876721,0 L4.1608918,0 C4.06737049,0 3.9915541,0.0754229829 3.9915541,0.168410758 L3.9915541,0.823158924 L0.508170492,0.823158924 C0.227842623,0.823158924 0.000629508195,1.04911491 0.000629508195,1.32784352 L0.000629508195,2.91325183 L11.9790295,2.91325183 L11.9790295,1.32788264 C11.9790295,1.04915403 11.7518164,0.823198044 11.4714885,0.823198044 L11.4714885,0.823198044 Z" id="Shape"></path>
                    </g>
                </g>
            </g>
        </g>
    </g>
</svg>