<?xml version="1.0" encoding="UTF-8" standalone="no"?>
<svg width="29px" height="29px" viewBox="0 0 29 29" version="1.1" xmlns="http://www.w3.org/2000/svg" xmlns:xlink="http://www.w3.org/1999/xlink" xmlns:sketch="http://www.bohemiancoding.com/sketch/ns">
    <!-- Generator: Sketch 3.3.1 (12002) - http://www.bohemiancoding.com/sketch -->
    <title>user-photo</title>
    <desc>Created with Sketch.</desc>
    <defs></defs>
    <g id="Page-1" stroke="none" stroke-width="1" fill="none" fill-rule="evenodd" sketch:type="MSPage">
        <g id="ava" sketch:type="MSArtboardGroup" transform="translate(-22.000000, -746.000000)">
            <g id="user-photo" sketch:type="MSLayerGroup" transform="translate(23.000000, 747.000000)">
                <g id="male-user" transform="translate(6.000000, 4.000000)" fill="#DEF4FE" sketch:type="MSShapeGroup">
                    <path d="M4.16271429,5.25789388 L4.18722857,5.23072653 C4.28653929,5.15743129 4.33487143,5.0427483 4.31683393,4.92268844 C4.07155179,3.42346122 4.23256607,2.79832925 4.2868875,2.64133878 C4.71553929,1.30483265 6.06110893,0.686704762 6.32519464,0.577115646 C6.38146607,0.554617687 6.48537321,0.522710204 6.59074286,0.506155102 L6.62215179,0.498726531 L6.83832321,0.487053061 L6.83999464,0.500636735 L6.8901375,0.495755102 C6.93470893,0.490873469 6.97733036,0.484930612 7.03088571,0.473469388 L7.07859107,0.463140136 C7.12079464,0.463776871 7.64457857,0.531058503 8.4228375,0.773442177 L8.96361429,0.962481633 C9.9526125,1.2592 10.4075893,1.81124898 10.4920661,1.92253605 C11.2841143,2.83405714 11.0716339,4.21046531 10.8755196,4.94943129 C10.8533732,5.03652245 10.8667446,5.12616054 10.9152161,5.20051701 L10.9599964,5.25662041 C11.0173125,5.3358585 11.0687786,5.64134966 10.8969,6.29018231 C10.8642375,6.48728707 10.7923661,6.64746122 10.6861607,6.75535238 C10.6468821,6.79914558 10.6192339,6.85496599 10.609275,6.91807347 C10.3415679,8.5122449 8.9356875,10.295668 7.45340893,10.295668 C6.19565893,10.295668 4.76025,8.65501497 4.50201429,6.91934694 C4.49219464,6.8545415 4.46566071,6.79737687 4.42150714,6.7483483 C4.31404821,6.63508027 4.24545,6.47200544 4.20408214,6.23068299 C4.07781964,5.77662041 4.06549286,5.41063946 4.16271429,5.25789388 L4.16271429,5.25789388 Z M1.33932321,12.1714177 C1.39385357,12.1013061 1.69791429,11.7393578 2.31286071,11.5010068 C2.85356786,11.3322721 4.19015357,10.8811102 4.92070714,10.3433524 C4.95497143,10.3246041 4.98867857,10.288098 5.016675,10.2592327 C5.08422857,10.1853007 5.18750893,10.0723156 5.30980179,9.95713741 L5.37798214,9.8913415 L5.44741607,9.95763265 C6.09105536,10.5740626 6.80315357,10.9117442 7.45285179,10.9117442 C8.13535179,10.9117442 8.83895357,10.6118422 9.48927857,10.0434503 L9.54025714,9.99923265 L9.67821964,10.0672218 C9.80155714,10.1819048 10.0148732,10.339532 10.113975,10.3874993 L10.2410732,10.4504653 L10.2277714,10.4644027 L10.2842518,10.4992109 C10.4042464,10.5727184 10.5347571,10.6441034 10.6878321,10.7210068 C10.8425786,10.7902694 10.9721839,10.8412082 11.1059679,10.8862748 C11.2189286,10.9236299 11.8202946,11.1284463 12.5043964,11.4496435 L12.6349071,11.4895456 C13.3039661,11.7499701 13.6009232,12.1114939 13.6301732,12.1492735 C14.4243107,13.3447075 14.7287196,15.5755429 14.8420982,16.8185905 C12.7678554,18.5293551 10.1591732,19.4711565 7.49261786,19.4711565 C4.82473929,19.4711565 2.21570893,18.5293551 0.142441071,16.8176707 C0.253451786,15.5780898 0.555353571,13.3544707 1.33932321,12.1714177 L1.33932321,12.1714177 Z" id="Shape"></path>
                </g>
                <circle id="Oval-28" stroke="#DEF4FE" opacity="0.5" sketch:type="MSShapeGroup" cx="13.5" cy="13.5" r="13.5"></circle>
            </g>
        </g>
    </g>
</svg>